<svg width="245" height="52" viewBox="0 0 245 52" fill="none" xmlns="http://www.w3.org/2000/svg">
<path d="M1 38.1407C1 38.4146 1.11233 38.6765 1.31077 38.8653L13.7778 50.7245C13.9637 50.9014 14.2104 51 14.467 51H243C243.552 51 244 50.5523 244 50V2C244 1.44772 243.552 1 243 1H2C1.44772 1 1 1.44772 1 2V38.1407Z" stroke="#33E9E9" stroke-width="2" stroke-linecap="round" stroke-linejoin="round"/>
<path d="M34.5702 32.2C38.7502 32.2 41.4102 30.12 41.4102 26.72V26.42H38.0702V26.72C38.0702 28.48 37.0702 29.32 34.6302 29.32C31.6902 29.32 30.5902 28.28 30.5902 25.3C30.5902 22.32 31.6902 21.28 34.6302 21.28C37.0702 21.28 38.0702 22.12 38.0702 23.88V24.18H41.4102V23.88C41.4102 20.48 38.7302 18.4 34.5702 18.4C30.1502 18.4 27.4102 21.12 27.4102 25.3C27.4102 29.48 30.1502 32.2 34.5702 32.2ZM49.6102 32.2C54.1502 32.2 56.8902 29.48 56.8902 25.3C56.8902 21.12 54.1502 18.4 49.6102 18.4C45.1702 18.4 42.4102 21.12 42.4102 25.3C42.4102 29.48 45.1702 32.2 49.6102 32.2ZM49.6102 29.32C46.6702 29.32 45.5902 28.28 45.5902 25.3C45.5902 22.32 46.6702 21.28 49.6102 21.28C52.5502 21.28 53.6902 22.32 53.6902 25.3C53.6902 28.28 52.5502 29.32 49.6102 29.32ZM61.1984 32V25.54L61.0784 23.08H61.2784L62.9784 25.6L67.9184 32H71.1184V18.6H68.1184V25.06L68.2584 27.76H68.0384L66.1984 24.94L61.3984 18.6H58.1984V32H61.1984ZM75.7102 32V25.54L75.5902 23.08H75.7902L77.4902 25.6L82.4302 32H85.6302V18.6H82.6302V25.06L82.7702 27.76H82.5502L80.7102 24.94L75.9102 18.6H72.7102V32H75.7102ZM98.5619 32V29.3H90.2219V26.6H98.2619V23.92H90.2219V21.3H98.5619V18.6H87.2219V32H98.5619ZM106.777 32.2C110.957 32.2 113.617 30.12 113.617 26.72V26.42H110.277V26.72C110.277 28.48 109.277 29.32 106.837 29.32C103.897 29.32 102.797 28.28 102.797 25.3C102.797 22.32 103.897 21.28 106.837 21.28C109.277 21.28 110.277 22.12 110.277 23.88V24.18H113.617V23.88C113.617 20.48 110.937 18.4 106.777 18.4C102.357 18.4 99.6172 21.12 99.6172 25.3C99.6172 29.48 102.357 32.2 106.777 32.2ZM122.377 32V21.3H127.357V18.6H114.397V21.3H119.377V32H122.377ZM138.559 32L140.599 25.3L141.539 21.44H141.759L142.699 25.3L144.699 32H149.159L152.339 18.6H149.059L147.439 26.2L146.979 29.14H146.759L146.139 26.2L143.919 18.6H139.459L137.219 26.2L136.599 29.14H136.379L135.919 26.2L134.299 18.6H130.939L134.099 32H138.559ZM155.834 32L157.114 29.04H163.814L165.074 32H168.514L162.614 18.6H158.334L152.474 32H155.834ZM159.534 23.42L160.354 21.34H160.574L161.394 23.42L162.654 26.34H158.274L159.534 23.42ZM180.194 32V29.3H172.214V18.6H169.214V32H180.194ZM192.382 32V29.3H184.402V18.6H181.402V32H192.382ZM204.929 32V29.3H196.589V26.6H204.629V23.92H196.589V21.3H204.929V18.6H193.589V32H204.929ZM213.744 32V21.3H218.724V18.6H205.764V21.3H210.744V32H213.744Z" fill="white"/>
</svg>
