<svg width="430" height="339" fill="none" xmlns="http://www.w3.org/2000/svg"><g clip-path="url(#clip0_254_10)"><g filter="url(#filter0_f_254_10)"><path d="M158.497 316.509c60.098-16.165 95.762-78.177 79.659-138.507-16.103-60.33-77.876-96.132-137.973-79.967-60.098 16.166-95.762 78.177-79.66 138.507 16.104 60.33 77.877 96.132 137.974 79.967z" fill="#936EFD"/></g><path d="M158.441 316.74c60.607-16.302 96.574-78.839 80.335-139.681-16.24-60.841-78.537-96.947-139.144-80.645-60.607 16.302-96.574 78.84-80.334 139.681 16.24 60.842 78.536 96.948 139.143 80.645z" fill="#936EFD"/><path d="M86.775 214.041c13.756-3.699 19.422-11.62 16.939-20.919-2.538-9.507-10.138-12.446-21.544-9.377-8.295 2.23-12.457 6.623-13.393 10.891l-.76.204-.815-3.053c-2.538-9.507.058-13.106 8.56-15.393 6.637-1.785 9.69-.896 10.764 3.129l.148.555 11.545-3.105-.149-.555c-2.538-9.507-12.324-13.419-24.975-10.017-13.825 3.719-20.788 13.996-16.472 30.165 4.39 16.446 13.285 22.012 30.152 17.475zm-3.22-9.844c-8.572 2.306-11.875 1.038-12.986-3.127-1.111-4.163 1.084-6.762 9.794-9.105 8.227-2.212 11.147-.989 12.294 3.313 1.093 4.094-.876 6.707-9.103 8.919zm51.201-3.062c14.862-3.997 20.638-15.666 16.767-30.17-3.852-14.434-14.686-21.709-29.548-17.712-14.931 4.016-20.62 15.736-16.767 30.17 3.871 14.503 14.616 21.729 29.548 17.712zm-2.705-10.131c-8.848 2.379-13.046-.582-15.714-10.575-2.667-9.992-.506-14.664 8.342-17.044 8.78-2.361 13.048.581 15.714 10.574 2.668 9.992.438 14.684-8.342 17.045zm47.365-10.956l-2.982-11.172 10.991-2.956-2.297-8.605-10.991 2.956-2.982-11.172-8.917 2.398 2.981 11.173-10.99 2.956 2.296 8.605 10.992-2.956 2.981 11.172 8.918-2.399zM99.49 248.925l-6.996-5.058 1.728 6.474-2.903.781-3.879-14.531 2.904-.781 1.739 6.516 3.528-7.933 3.505-.942-4.05 8.809 8.094 5.677-3.67.988zm4.604-16.814l3.879 14.531-2.903.781-3.879-14.531 2.903-.781zm19.128 10.43l-2.903.781-9.235-8.205 2.661 9.973-2.903.78-3.884-14.551 2.903-.781 9.242 8.225-2.668-9.994 2.903-.78 3.884 14.552zm4.051-16.664c1.52-.41 2.935-.47 4.242-.182 1.32.284 2.44.898 3.358 1.841.928.925 1.588 2.117 1.977 3.574.388 1.457.411 2.819.068 4.087-.333 1.25-1.001 2.33-2.003 3.239-.988.905-2.243 1.562-3.764 1.972l-5.059 1.361-3.879-14.532 5.06-1.36zm3.114 12.081c1.52-.409 2.585-1.141 3.191-2.198.608-1.055.71-2.34.306-3.852-.404-1.513-1.133-2.581-2.189-3.204-1.059-.638-2.349-.752-3.87-.343l-2.053.552 2.562 9.597 2.053-.552zm15.606-1.387c-1.009.272-1.968.344-2.876.217-.894-.132-1.664-.46-2.308-.986-.644-.527-1.092-1.231-1.342-2.116l3.11-.837c.201.586.534 1.002 1 1.248.48.244 1.051.276 1.715.097.677-.182 1.167-.485 1.469-.909.299-.436.377-.918.236-1.446-.115-.43-.34-.749-.677-.956a2.74 2.74 0 00-1.168-.378c-.432-.062-1.019-.097-1.762-.106-1.014-.024-1.853-.089-2.518-.192a4.4 4.4 0 01-1.842-.822c-.564-.443-.967-1.123-1.211-2.039-.23-.86-.216-1.668.043-2.421.257-.754.73-1.401 1.415-1.943.682-.555 1.52-.967 2.515-1.234 1.493-.402 2.801-.36 3.924.127 1.132.469 1.921 1.343 2.366 2.621l-3.194.859a1.672 1.672 0 00-.97-1.055c-.476-.229-1.039-.256-1.689-.081-.566.152-.984.42-1.252.805-.254.38-.306.848-.159 1.404.104.388.316.681.635.878.33.179.703.301 1.12.368a22.68 22.68 0 001.763.106c1.014.025 1.855.096 2.524.213a4.29 4.29 0 011.868.836c.577.441.986 1.111 1.226 2.014.208.777.2 1.553-.023 2.327s-.668 1.466-1.335 2.077c-.67.597-1.538 1.038-2.603 1.324zm19.301-5.191c-1.356.364-2.685.38-3.989.047a7.375 7.375 0 01-3.401-1.92c-.968-.959-1.643-2.153-2.024-3.583-.378-1.415-.386-2.775-.021-4.078a7.376 7.376 0 011.984-3.389c.963-.944 2.123-1.597 3.477-1.962 1.369-.368 2.699-.383 3.989-.047a7.202 7.202 0 013.387 1.946c.963.945 1.634 2.126 2.012 3.542.382 1.429.392 2.802.032 4.119a7.274 7.274 0 01-1.969 3.364c-.964.943-2.123 1.597-3.477 1.961zm-.695-2.602c.871-.234 1.586-.636 2.146-1.202.556-.581.923-1.29 1.1-2.126.177-.836.136-1.739-.124-2.711-.259-.972-.671-1.768-1.238-2.389-.569-.635-1.238-1.058-2.005-1.268-.768-.21-1.586-.198-2.458.036-.871.235-1.593.637-2.166 1.208-.56.567-.929 1.269-1.106 2.104-.181.823-.141 1.72.118 2.691.26.971.674 1.775 1.244 2.41.569.635 1.239 1.065 2.011 1.289.781.206 1.607.192 2.478-.042zm15.279-17.051l.628 2.352-6.035 1.623.994 3.727 4.625-1.244.617 2.311-4.625 1.244 1.639 6.141-2.903.781-3.879-14.531 8.939-2.404zm-84.819 55.086l.973 3.644 4.873-1.312.617 2.312-4.874 1.31 1.029 3.852 5.495-1.478.633 2.373-8.399 2.259-3.884-14.552 8.4-2.259.633 2.373-5.496 1.478zm13.671 6.9l4.77-1.283.617 2.31-7.673 2.064-3.878-14.531 2.902-.781 3.262 12.221zm6.885-12.429l.972 3.643 4.874-1.311.617 2.311-4.874 1.311 1.028 3.852 5.495-1.478.634 2.373-8.398 2.259-3.885-14.552 8.4-2.259.633 2.373-5.496 1.478zm23.288-8.785l3.879 14.531-2.904.781-2.523-9.452L136 268.854l-2.198.591-6.422-8.402 2.523 9.451-2.903.781-3.879-14.531 3.297-.888 7.488 9.567 1.72-12.042 3.277-.882zm6.401.799l.973 3.643 4.873-1.311.617 2.312-4.873 1.31 1.028 3.852 5.495-1.479.634 2.374-8.399 2.258-3.885-14.551 8.399-2.26.634 2.374-5.496 1.478zm23.766 6.661l-2.903.781-9.236-8.204 2.662 9.972-2.904.781-3.884-14.552 2.903-.781 9.241 8.225-2.667-9.994 2.903-.78 3.885 14.552zm8.841-17.953l.628 2.353-3.858 1.037 3.251 12.179-2.903.781-3.251-12.178-3.857 1.037-.628-2.353 10.618-2.856zm11.034 12.763c-1.01.271-1.968.343-2.877.215-.894-.131-1.664-.459-2.308-.985-.644-.526-1.091-1.231-1.343-2.115l3.112-.837c.2.585.534 1.002 1 1.248.479.243 1.051.275 1.715.097.677-.182 1.166-.485 1.469-.909.298-.437.376-.919.236-1.447-.116-.43-.341-.749-.677-.955a2.722 2.722 0 00-1.169-.378c-.431-.062-1.019-.098-1.761-.106-1.015-.025-1.855-.089-2.519-.193a4.403 4.403 0 01-1.842-.821c-.563-.444-.966-1.123-1.211-2.039-.229-.861-.215-1.668.043-2.422.258-.753.73-1.401 1.415-1.942.681-.556 1.52-.967 2.515-1.235 1.493-.401 2.801-.359 3.924.128 1.133.469 1.921 1.342 2.367 2.62l-3.194.86a1.677 1.677 0 00-.97-1.056c-.476-.229-1.04-.256-1.689-.081-.567.152-.984.421-1.253.805-.254.381-.306.849-.158 1.404.104.389.315.681.634.878.329.179.703.302 1.121.368.428.049 1.015.084 1.762.106 1.014.025 1.856.096 2.524.214a4.267 4.267 0 011.868.836c.577.44.986 1.111 1.226 2.013.208.777.2 1.553-.023 2.327s-.668 1.467-1.335 2.077c-.671.597-1.537 1.038-2.602 1.325z" fill="#131119"/></g><g clip-path="url(#clip1_254_10)"><g filter="url(#filter1_f_254_10)"><path d="M274.239 226.977c54.353 14.562 110.222-17.688 124.786-72.03 14.564-54.343-17.692-110.2-72.046-124.761-54.353-14.561-110.221 17.688-124.785 72.031-14.564 54.342 17.691 110.199 72.045 124.76z" fill="#33E9E9"/></g><path d="M273.43 229.994c56.019 15.007 113.599-18.23 128.609-74.238 15.01-56.007-18.234-113.576-74.253-128.583-56.018-15.007-113.598 18.23-128.609 74.237-15.01 56.008 18.234 113.577 74.253 128.584z" fill="#33E9E9"/><path d="M365.151 149.875l6.836 2.709 2.653.905-.083.211-3.38.742-8.844 2.543-1.343 3.384 14.179 5.62 1.258-3.173-6.835-2.71-2.916-.984.092-.232 3.756-.765 8.722-2.419 1.342-3.384-14.178-5.62-1.259 3.173zm-6.845 14.491l4.703 3.205-5.154 7.56 2.521 1.717 5.154-7.56 2.84 1.936-5.346 7.842 2.54 1.73 7.269-10.663-12.604-8.588-1.923 2.821zm-12.316 14.619l8.364 8.851-4.121 3.892 2.111 2.233 10.722-10.128-2.11-2.234-4.121 3.892-8.364-8.85-2.481 2.344zm-15.143 15.068c-1.65.769-2.472 2.508-1.596 4.386.875 1.877 2.735 2.365 4.386 1.596 1.63-.76 2.473-2.509 1.597-4.386-.875-1.877-2.757-2.356-4.387-1.596zm-19.486 1.574l.486 4.184-4.522.526c-3.505.408-5.532 2.683-5.126 6.164.405 3.482 2.898 5.208 6.402 4.801l7.915-.922-1.764-15.147-3.391.394zm-2.753 12.58c-1.877.218-2.825-.244-3.04-2.098-.221-1.899.598-2.544 2.474-2.762l4.161-.485.565 4.861-4.16.484zm-15.758-12.435c-5.135-.575-8.579 2.154-9.11 6.881-.53 4.727 2.225 8.151 7.361 8.726 5.022.563 8.488-2.163 9.019-6.89.53-4.728-2.247-8.154-7.27-8.717zm-.365 3.257c3.325.373 4.415 1.686 4.038 5.057-.379 3.369-1.731 4.408-5.058 4.036-3.325-.373-4.482-1.693-4.105-5.064.379-3.37 1.799-4.402 5.125-4.029zm-20.711-8.584l-1.01 2.902 8.577 2.987-4.004 11.499 3.225 1.123 5.015-14.402-11.803-4.109zm-8.454-4.989l-2.626 4.291-11.199 5.128 3.611 2.21 4.815-2.284 2.157-1.083.213.131.018 2.413.157 5.326 3.592 2.197-.444-12.225 2.638-4.31-2.932-1.794zm-10.663-8.931c-2.319-2.348-4.508-2.426-6.301-1.391l-.128-.13 2.332-2.303-2.223-2.251-5.734 5.661 6.03 6.106 1.798-1.776-3.631-3.676c1.441-1.295 2.582-.917 5.045 1.577 2.351 2.381 2.389 4.103-.025 6.485-2.413 2.384-4.167 2.292-6.599-.169-2.063-2.089-2.28-3.507-1.016-4.754l.13-.128-2.672-2.705-.129.128c-2.608 2.575-2.068 6.295 1.291 9.697 3.679 3.724 8.153 3.849 11.538.507 3.386-3.343 3.573-7.558.294-10.878zm-10.631-13.682c-2.632-4.446-6.885-5.552-10.979-3.129-4.095 2.424-5.17 6.684-2.538 11.129 2.575 4.349 6.839 5.474 10.934 3.051 4.094-2.423 5.158-6.703 2.583-11.051zm-2.821 1.669c1.705 2.88 1.312 4.54-1.606 6.268-2.919 1.728-4.564 1.273-6.269-1.607-1.704-2.879-1.347-4.598 1.572-6.325 2.919-1.728 4.598-1.214 6.303 1.664zm-2.814-12.784l-7.037 2.129-2.641.941-.066-.218 2.185-2.682 5.344-7.49-1.055-3.486-14.599 4.417.989 3.268 7.038-2.129 2.896-1.043.072.239-2.466 2.935-5.324 7.317 1.055 3.486 14.598-4.417-.989-3.267zm-8.302-26.131c.07-1.819-1.1-3.346-3.17-3.426-2.07-.081-3.356 1.35-3.427 3.169-.07 1.797 1.099 3.346 3.169 3.426 2.07.081 3.357-1.372 3.428-3.169zm7.484-18.227l-6.856-2.656-2.66-.885.082-.211 3.374-.769 8.824-2.609 1.317-3.395-14.222-5.511-1.234 3.183 6.856 2.657 2.923.961-.09.233-3.75.793-8.703 2.487-1.316 3.395 14.221 5.511 1.234-3.184zm6.859-14.763l-4.715-3.187 5.125-7.58-2.527-1.708-5.125 7.58-2.848-1.925 5.317-7.863-2.546-1.72-7.229 10.69 12.635 8.541 1.913-2.828zm12.259-14.677l-8.396-8.82 4.106-3.907-2.119-2.226-10.686 10.169 2.119 2.225 4.106-3.907 8.397 8.82 2.473-2.353zm14.804-15.006c1.647-.775 2.463-2.517 1.58-4.391-.882-1.874-2.744-2.356-4.392-1.58-1.627.765-2.463 2.517-1.581 4.391.883 1.874 2.766 2.346 4.393 1.58zm23.97-2.055c5.141-.52 7.932-3.914 7.453-8.647-.479-4.733-3.894-7.498-9.035-6.978-5.028.51-7.843 3.905-7.363 8.638.479 4.733 3.917 7.496 8.945 6.987zm-.33-3.261c-3.33.337-4.672-.717-5.014-4.09-.342-3.375.763-4.676 4.092-5.013 3.329-.337 4.74.71 5.081 4.084.342 3.374-.83 4.682-4.159 5.019zm12.525 2.798l.533-4.177 4.516.577c3.5.446 6.015-1.275 6.459-4.752.444-3.477-1.561-5.752-5.061-6.198l-7.903-1.009-1.931 15.127 3.387.432zm5.697-11.548c1.874.239 2.682.916 2.446 2.767-.242 1.896-1.192 2.326-3.066 2.087l-4.155-.53.62-4.855 4.155.53zm17.522 17.33l1.011-2.902-8.964-3.121 1.01-2.902 8.642 3.009 1.004-2.88-8.642-3.01.98-2.815 8.965 3.121 1.01-2.902-12.189-4.244-5.016 14.402 12.189 4.243zm4.023 2.18l3.885-6.242 1.364-2.449.194.12.127 3.458.924 9.154 3.092 1.924 8.059-12.947-2.898-1.803-3.886 6.24-1.489 2.694-.212-.133-.082-3.83-.825-9.013-3.092-1.924-8.06 12.947 2.899 1.804zm15.381 11.872c3.445 3.411 6.39 3.188 8.137 1.425 1.473-1.487 1.77-3.533-.273-6.323l-2.56-3.497c-.744-1.058-.876-1.637-.251-2.268.689-.695 1.558-.506 3.306 1.224 2.15 2.13 2.251 3.095 1.226 4.13l-.224.226 2.442 2.419.097-.097c2.258-2.28 2.228-5.354-1.105-8.653-3.638-3.604-6.663-3.204-8.28-1.57-1.746 1.762-1.56 3.87.077 6.099l2.608 3.448c.923 1.299 1.055 1.91.398 2.573-.72.727-1.462.57-3.403-1.352-2.2-2.178-2.3-3.08-1.307-4.082l.288-.29-2.426-2.403-.096.097c-2.499 2.522-1.937 5.642 1.346 8.893zm12.638 16.19l2.568-1.688-5.216-7.93 2.568-1.688 5.028 7.645 2.549-1.676-5.028-7.645 2.49-1.638 5.217 7.93 2.568-1.689-7.093-10.782-12.744 8.38 7.093 10.782z" fill="#131119"/><path d="M362.478 99.799l3.665.203 2.633 7.157-2.667 2.508 1.352 3.674 11.997-11.566-1.682-4.571-16.617-.994 1.319 3.589zm10.62.58l2.545.059.086.235-1.9 1.693-2.624 2.493-1.721-4.678 3.614.198zm-.235 27.38c.013 1.821 1.251 3.292 3.323 3.278 2.072-.014 3.291-1.502 3.279-3.322-.012-1.798-1.251-3.292-3.323-3.278-2.071.013-3.291 1.524-3.279 3.322zm-62.939-34.715l-.881 1.443-12.179 45.444.337.583 24.441-6.816-11.718-40.654z" fill="#131119"/><path d="M309.924 93.044l-30.479 29.35 17.756 18.121 5.912-22.058 6.811-25.413zm-14.563 54.334l-.344.247-4.339 16.188.057.828 29.078-24.07-24.452 6.807z" fill="#131119"/><path d="M290.736 164.642l4.627-17.264-17.759-18.115 13.132 35.379zm6.464-24.127l24.441-6.816-18.529-15.241-5.912 22.057z" fill="#131119"/><path d="M279.445 122.394l17.757 18.12 5.911-22.057-23.668 3.937z" fill="#131119"/></g><defs><clipPath id="clip0_254_10"><path fill="#fff" transform="translate(0 66)" d="M0 0h258v273H0z"/></clipPath><clipPath id="clip1_254_10"><path fill="#fff" transform="translate(172)" d="M0 0h258v257H0z"/></clipPath><filter id="filter0_f_254_10" x="-7.343" y="70.154" width="273.365" height="274.237" filterUnits="userSpaceOnUse" color-interpolation-filters="sRGB"><feFlood flood-opacity="0" result="BackgroundImageFix"/><feBlend in="SourceGraphic" in2="BackgroundImageFix" result="shape"/><feGaussianBlur stdDeviation="12" result="effect1_foregroundBlur_254_10"/></filter><filter id="filter1_f_254_10" x="174.697" y="2.689" width="251.825" height="251.784" filterUnits="userSpaceOnUse" color-interpolation-filters="sRGB"><feFlood flood-opacity="0" result="BackgroundImageFix"/><feBlend in="SourceGraphic" in2="BackgroundImageFix" result="shape"/><feGaussianBlur stdDeviation="12" result="effect1_foregroundBlur_254_10"/></filter></defs></svg>