<svg width="156" height="15" fill="none" xmlns="http://www.w3.org/2000/svg"><path d="M3.8 14V7.2l-.12-2.1h.22l.78 2.1 2.8 6h3.64l2.8-6 .78-2.1h.22l-.1 2.1V14h3V.6h-4.08L10.7 7.2l-1.22 3.14h-.22L8 7.2 4.86.6H.8V14h3zm26.934 0v-2.7h-8.34V8.6h8.04V5.92h-8.04V3.3h8.34V.6h-11.34V14h11.34zm8.815 0V3.3h4.98V.6H31.57v2.7h4.98V14h3zm8.516 0l1.28-2.96h6.7l1.26 2.96h3.44L54.845.6h-4.28L44.705 14h3.36zm3.7-8.58l.82-2.08h.22l.82 2.08 1.26 2.92h-4.38l1.26-2.92zm15.14 8.78c4.36 0 6-2.06 6-5.5V.6h-3.18v8.1c0 1.88-.46 2.58-2.82 2.58-2.38 0-2.78-.74-2.78-2.72v-.58h-3.18v.58c0 3.54 1.62 5.64 5.96 5.64zm13.988 0c4.38 0 6.58-2.2 6.58-5.8V.6h-3v7.58c0 2.28-.84 3.1-3.58 3.1-2.72 0-3.58-.82-3.58-3.1V.6h-3v7.8c0 3.6 2.22 5.8 6.58 5.8zm11.09-.2V7.54l-.12-2.46h.2l1.7 2.52 4.94 6.4h3.201V.6h-3v6.46l.14 2.7h-.22l-1.84-2.82-4.8-6.34h-3.2V14h3zm17.832.2c2.9 0 4.3-1.32 4.76-3.08h.16V14h2.78V6.92h-7.54v2.22h4.54c-.08 1.7-1.02 2.18-4.1 2.18-2.94 0-4.04-1.04-4.04-4.02 0-2.98 1.14-4.02 4.18-4.02 2.58 0 3.6.74 3.6 2.3v.16h3.34v-.16c0-3.22-2.66-5.18-6.86-5.18-4.6 0-7.44 2.72-7.44 6.9s2.52 6.9 6.62 6.9zm20.149-.2v-2.7h-7.98V.6h-3V14h10.98zm12.547 0v-2.7h-8.34V8.6h8.04V5.92h-8.04V3.3h8.34V.6h-11.34V14h11.34zm7.435.2c4.26 0 5.96-1.96 5.96-4.14 0-1.84-1.08-3.3-4.08-3.78l-3.76-.6c-1.12-.2-1.56-.48-1.56-1.26 0-.86.66-1.28 2.82-1.28 2.66 0 3.32.54 3.32 1.82v.28h3.02v-.12c0-2.82-1.92-4.72-6.04-4.72-4.5 0-6.14 2.12-6.14 4.14 0 2.18 1.42 3.38 3.82 3.76l3.76.54c1.38.24 1.84.54 1.84 1.36 0 .9-.56 1.26-2.96 1.26-2.72 0-3.34-.5-3.34-1.74v-.36h-3v.12c0 3.12 2.28 4.72 6.34 4.72z" fill="#fff"/></svg>