<svg width="156" height="84" fill="none" xmlns="http://www.w3.org/2000/svg"><g filter="url(#filter0_f_116_1752)"><path d="M14 13a1 1 0 00-1 1v44.14a1 1 0 00.31.725l12.468 11.86a1 1 0 00.689.275H142a1 1 0 001-1V14a1 1 0 00-1-1H14z" stroke="#33E9E9" stroke-width="2" stroke-linecap="round" stroke-linejoin="round"/></g><path d="M14 13a1 1 0 00-1 1v44.14a1 1 0 00.31.725l12.468 11.86a1 1 0 00.689.275H142a1 1 0 001-1V14a1 1 0 00-1-1H14z" stroke="#33E9E9" stroke-width="2" stroke-linecap="round" stroke-linejoin="round"/><path d="M56.204 48v-6.8l-.12-2.1h.22l.78 2.1 2.8 6h3.64l2.8-6 .78-2.1h.22l-.1 2.1V48h3V34.6h-4.08l-3.04 6.6-1.22 3.14h-.22l-1.26-3.14-3.14-6.6h-4.06V48h3zm18.594 0V34.6h-3V48h3zm4.57 0v-6.46l-.12-2.46h.2l1.7 2.52 4.94 6.4h3.2V34.6h-3v6.46l.14 2.7h-.22l-1.84-2.82-4.8-6.34h-3.2V48h3zm18.972 0V37.3h4.98v-2.7H90.36v2.7h4.98V48h3z" fill="#fff"/><defs><filter id="filter0_f_116_1752" x="0" y="0" width="156" height="84" filterUnits="userSpaceOnUse" color-interpolation-filters="sRGB"><feFlood flood-opacity="0" result="BackgroundImageFix"/><feBlend in="SourceGraphic" in2="BackgroundImageFix" result="shape"/><feGaussianBlur stdDeviation="6" result="effect1_foregroundBlur_116_1752"/></filter></defs></svg>