<svg width="30" height="30" fill="none" xmlns="http://www.w3.org/2000/svg"><path opacity=".3" d="M28.001 6.937a10.68 10.68 0 01-3.064.84 5.343 5.343 0 002.345-2.951 10.696 10.696 0 01-3.388 1.295 5.334 5.334 0 00-9.089 4.864A15.143 15.143 0 013.81 5.41a5.321 5.321 0 00-.721 2.683 5.33 5.33 0 002.372 4.439 5.323 5.323 0 01-2.416-.667v.066a5.335 5.335 0 004.279 5.23 5.336 5.336 0 01-2.409.093 5.34 5.34 0 004.983 3.704 10.699 10.699 0 01-6.625 2.285c-.43 0-.855-.026-1.273-.075a15.102 15.102 0 008.177 2.395c9.812 0 15.176-8.128 15.176-15.177 0-.23-.005-.46-.015-.69a10.855 10.855 0 002.663-2.76z" fill="#fff"/></svg>