<svg width="453" height="413" viewBox="0 0 453 413" fill="none" xmlns="http://www.w3.org/2000/svg">
<g filter="url(#filter0_f_101_11)">
<circle cx="155.881" cy="258.317" r="125.932" transform="rotate(-15 155.881 258.317)" fill="#A873ED"/>
</g>
<circle cx="155.543" cy="257.543" r="127" transform="rotate(-15 155.543 257.543)" fill="#9273ED"/>
<path d="M127.473 258.646C142.85 254.526 149.184 245.706 146.409 235.351C143.572 224.765 135.076 221.492 122.326 224.909C113.053 227.393 108.4 232.284 107.354 237.037L106.504 237.265L105.593 233.865C102.757 223.278 105.658 219.27 115.163 216.724C122.581 214.736 125.994 215.726 127.195 220.208L127.361 220.827L140.265 217.369L140.1 216.751C137.263 206.164 126.323 201.807 112.182 205.596C96.7267 209.737 88.9435 221.182 93.7679 239.187C98.6751 257.501 108.618 263.698 127.473 258.646ZM123.873 247.684C114.291 250.252 110.6 248.839 109.357 244.203C108.115 239.566 110.57 236.672 120.306 234.063C129.502 231.599 132.765 232.961 134.049 237.752C135.271 242.311 133.069 245.22 123.873 247.684ZM181.109 244.274C197.723 239.823 204.18 226.829 199.852 210.679C195.546 194.606 183.436 186.504 166.822 190.955C150.131 195.428 143.772 208.478 148.079 224.551C152.406 240.702 164.418 248.747 181.109 244.274ZM178.086 232.992C168.195 235.643 163.501 232.345 160.52 221.218C157.538 210.09 159.954 204.888 169.845 202.237C179.659 199.608 184.43 202.885 187.411 214.012C190.393 225.14 187.9 230.363 178.086 232.992Z" fill="black"/>
<path d="M122.518 302.626L114.698 296.994L116.63 304.204L113.384 305.073L109.049 288.892L112.294 288.023L114.238 295.279L118.182 286.445L122.1 285.395L117.573 295.205L126.621 301.527L122.518 302.626ZM127.666 283.904L132.002 300.085L128.756 300.955L124.42 284.773L127.666 283.904ZM149.048 295.517L145.802 296.387L135.478 287.252L138.454 298.356L135.208 299.226L130.866 283.021L134.112 282.152L144.442 291.31L141.46 280.183L144.706 279.313L149.048 295.517ZM153.576 276.961C155.276 276.506 156.856 276.438 158.317 276.759C159.793 277.076 161.045 277.759 162.072 278.809C163.11 279.84 163.846 281.166 164.281 282.789C164.716 284.412 164.741 285.929 164.358 287.34C163.985 288.732 163.239 289.934 162.119 290.947C161.014 291.955 159.612 292.687 157.912 293.142L152.255 294.658L147.919 278.477L153.576 276.961ZM157.057 290.415C158.757 289.959 159.946 289.144 160.625 287.968C161.304 286.792 161.417 285.362 160.966 283.677C160.515 281.993 159.699 280.803 158.519 280.109C157.335 279.399 155.893 279.272 154.193 279.728L151.898 280.343L154.762 291.03L157.057 290.415ZM174.503 288.871C173.374 289.173 172.303 289.253 171.287 289.111C170.287 288.965 169.427 288.599 168.707 288.014C167.987 287.428 167.487 286.643 167.206 285.658L170.684 284.726C170.908 285.378 171.281 285.841 171.802 286.116C172.338 286.386 172.977 286.422 173.719 286.223C174.476 286.021 175.023 285.683 175.361 285.212C175.694 284.725 175.782 284.188 175.625 283.601C175.496 283.122 175.244 282.767 174.868 282.537C174.491 282.306 174.056 282.166 173.562 282.116C173.08 282.047 172.423 282.007 171.593 281.998C170.459 281.97 169.52 281.899 168.777 281.783C168.045 281.648 167.359 281.343 166.718 280.869C166.089 280.375 165.638 279.618 165.364 278.598C165.108 277.64 165.124 276.741 165.412 275.902C165.701 275.062 166.228 274.341 166.994 273.739C167.756 273.12 168.693 272.662 169.806 272.364C171.475 271.917 172.937 271.964 174.192 272.505C175.459 273.028 176.34 274 176.838 275.424L173.268 276.381C173.088 275.833 172.726 275.441 172.183 275.206C171.651 274.951 171.021 274.92 170.295 275.115C169.661 275.285 169.195 275.584 168.895 276.012C168.611 276.436 168.552 276.957 168.718 277.575C168.834 278.008 169.07 278.334 169.427 278.553C169.795 278.752 170.213 278.889 170.68 278.963C171.158 279.017 171.815 279.056 172.65 279.081C173.783 279.108 174.724 279.188 175.471 279.319C176.219 279.45 176.915 279.76 177.559 280.25C178.204 280.74 178.661 281.487 178.93 282.491C179.162 283.357 179.153 284.221 178.904 285.083C178.655 285.944 178.157 286.715 177.412 287.396C176.662 288.06 175.693 288.552 174.503 288.871ZM196.077 283.09C194.563 283.496 193.076 283.513 191.619 283.142C190.161 282.77 188.893 282.058 187.816 281.005C186.735 279.936 185.981 278.606 185.554 277.014C185.132 275.438 185.124 273.925 185.53 272.474C185.932 271.008 186.672 269.75 187.749 268.699C188.826 267.649 190.121 266.92 191.636 266.515C193.166 266.105 194.652 266.087 196.094 266.463C197.552 266.834 198.814 267.556 199.88 268.629C200.957 269.682 201.707 270.997 202.13 272.573C202.556 274.165 202.568 275.694 202.166 277.16C201.775 278.606 201.041 279.855 199.964 280.905C198.887 281.956 197.592 282.684 196.077 283.09ZM195.301 280.192C196.274 279.931 197.074 279.485 197.7 278.854C198.322 278.207 198.732 277.418 198.929 276.487C199.127 275.556 199.081 274.549 198.791 273.468C198.501 272.386 198.04 271.499 197.408 270.807C196.771 270.1 196.023 269.629 195.166 269.395C194.308 269.161 193.392 269.175 192.419 269.436C191.445 269.696 190.637 270.145 189.996 270.78C189.37 271.412 188.958 272.193 188.761 273.124C188.559 274.039 188.603 275.038 188.892 276.12C189.182 277.202 189.646 278.096 190.282 278.804C190.919 279.511 191.669 279.989 192.53 280.239C193.404 280.469 194.327 280.453 195.301 280.192ZM212.38 261.205L213.082 263.824L206.336 265.632L207.448 269.781L212.618 268.396L213.307 270.969L208.137 272.355L209.97 279.193L206.724 280.063L202.389 263.882L212.38 261.205ZM117.565 322.547L118.652 326.604L124.1 325.144L124.79 327.717L119.342 329.177L120.491 333.466L126.634 331.819L127.342 334.462L117.954 336.978L113.612 320.774L123.001 318.258L123.709 320.901L117.565 322.547ZM132.848 330.229L138.18 328.8L138.869 331.374L130.292 333.672L125.956 317.491L129.202 316.621L132.848 330.229ZM140.544 316.39L141.631 320.447L147.079 318.987L147.768 321.56L142.32 323.02L143.47 327.308L149.613 325.662L150.321 328.305L140.932 330.821L136.59 314.617L145.979 312.101L146.687 314.744L140.544 316.39ZM166.576 306.607L170.912 322.788L167.667 323.657L164.846 313.133L163.331 324.819L160.874 325.477L153.696 316.121L156.516 326.645L153.27 327.515L148.935 311.334L152.621 310.346L160.991 320.999L162.913 307.588L166.576 306.607ZM173.732 307.497L174.819 311.554L180.267 310.094L180.957 312.667L175.509 314.127L176.658 318.416L182.801 316.77L183.51 319.412L174.121 321.928L169.779 305.724L179.168 303.208L179.876 305.851L173.732 307.497ZM200.299 314.914L197.053 315.783L186.729 306.648L189.704 317.752L186.459 318.622L182.117 302.418L185.363 301.548L195.693 310.706L192.711 299.579L195.957 298.709L200.299 314.914ZM210.182 294.923L210.884 297.542L206.572 298.698L210.206 312.259L206.96 313.129L203.326 299.567L199.014 300.723L198.313 298.103L210.182 294.923ZM222.516 309.134C221.388 309.437 220.316 309.517 219.301 309.375C218.301 309.229 217.441 308.863 216.721 308.277C216.001 307.692 215.5 306.906 215.22 305.921L218.697 304.99C218.922 305.642 219.294 306.105 219.815 306.38C220.351 306.65 220.99 306.686 221.732 306.487C222.489 306.284 223.037 305.947 223.374 305.476C223.708 304.989 223.796 304.452 223.638 303.864C223.51 303.385 223.257 303.031 222.881 302.8C222.505 302.57 222.069 302.43 221.576 302.38C221.093 302.31 220.437 302.271 219.606 302.261C218.472 302.234 217.534 302.162 216.791 302.047C216.059 301.912 215.372 301.607 214.732 301.133C214.102 300.639 213.651 299.882 213.378 298.862C213.121 297.903 213.137 297.005 213.426 296.165C213.714 295.326 214.242 294.605 215.008 294.002C215.77 293.384 216.707 292.926 217.82 292.628C219.489 292.18 220.951 292.227 222.206 292.769C223.472 293.291 224.354 294.264 224.851 295.688L221.281 296.644C221.101 296.096 220.74 295.705 220.196 295.469C219.664 295.214 219.035 295.184 218.308 295.379C217.675 295.549 217.208 295.848 216.909 296.276C216.625 296.7 216.566 297.221 216.731 297.839C216.847 298.272 217.084 298.597 217.441 298.817C217.809 299.016 218.226 299.153 218.693 299.226C219.172 299.28 219.828 299.32 220.663 299.344C221.797 299.372 222.737 299.451 223.485 299.582C224.232 299.713 224.928 300.024 225.573 300.514C226.218 301.003 226.675 301.751 226.944 302.755C227.176 303.621 227.167 304.484 226.918 305.346C226.668 306.208 226.171 306.979 225.425 307.659C224.676 308.324 223.706 308.816 222.516 309.134Z" fill="black"/>
<g filter="url(#filter1_f_101_11)">
<circle cx="316.588" cy="135.588" r="107.416" transform="rotate(15 316.588 135.588)" fill="#33E9E9"/>
</g>
<circle cx="316.586" cy="135.588" r="110.707" transform="rotate(15 316.586 135.588)" fill="#33E9E9"/>
<path d="M372.968 175.332L379.047 180.142L381.451 181.861L381.302 182.049L377.665 181.772L367.964 181.655L365.581 184.666L378.191 194.645L380.425 191.821L374.346 187.011L371.701 185.132L371.865 184.925L375.889 185.294L385.429 185.498L387.812 182.486L375.202 172.508L372.968 175.332Z" fill="#131119"/>
<path d="M361.144 188.575L364.815 193.322L357.182 199.224L359.149 201.768L366.782 195.866L368.999 198.733L361.081 204.855L363.063 207.418L373.828 199.094L363.992 186.373L361.144 188.575Z" fill="#131119"/>
<path d="M343.531 199.649L348.873 211.325L343.439 213.812L344.787 216.758L358.929 210.288L357.581 207.341L352.147 209.828L346.805 198.152L343.531 199.649Z" fill="#131119"/>
<path d="M314.012 217.716C315.715 217.769 317.125 216.445 317.178 214.766C317.232 213.063 315.907 211.652 314.204 211.599C312.525 211.546 311.115 212.871 311.061 214.574C311.008 216.253 312.333 217.663 314.012 217.716Z" fill="#131119"/>
<path d="M286.442 199.142C283.132 197.726 280.907 198.653 279.831 201.169C278.981 203.155 279.72 205.089 282.371 206.459L282.286 206.657C279.739 205.776 278.202 206.685 277.418 208.516C276.427 210.833 277.512 212.811 280.535 214.105L289.405 217.9L295.731 203.117L286.442 199.142ZM287.37 213.505L282.229 211.305C280.993 210.777 280.653 210.109 281.087 209.094C281.521 208.079 282.208 207.877 283.422 208.396L288.607 210.615L287.37 213.505ZM289.778 207.879L284.195 205.49C282.849 204.914 282.477 204.259 282.977 203.089C283.487 201.898 284.218 201.715 285.564 202.291L291.147 204.679L289.778 207.879Z" fill="#131119"/>
<path d="M277.135 193.902L268.484 207.457L271.519 209.394L280.17 195.839L277.135 193.902Z" fill="#131119"/>
<path d="M268.826 187.35L260.238 196.896L255.796 192.899L253.629 195.307L265.19 205.709L267.357 203.3L262.915 199.303L271.502 189.758L268.826 187.35Z" fill="#131119"/>
<path d="M258.732 175.312C255.93 171.151 252.077 169.898 248.692 172.177L248.394 172.378L250.633 175.702L250.931 175.501C252.683 174.321 254.189 174.754 255.825 177.182C257.795 180.109 257.498 181.901 254.531 183.898C251.565 185.896 249.793 185.498 247.822 182.571C246.187 180.143 246.353 178.584 248.104 177.405L248.403 177.204L246.164 173.879L245.866 174.08C242.481 176.359 242.207 180.421 244.996 184.561C247.958 188.961 252.502 189.865 256.663 187.063C260.824 184.262 261.694 179.711 258.732 175.312Z" fill="#131119"/>
<path d="M250.794 159.839C249.007 154.693 244.845 152.657 240.107 154.303C235.368 155.948 233.363 160.124 235.15 165.271C236.898 170.304 241.068 172.363 245.806 170.717C250.545 169.072 252.542 164.873 250.794 159.839ZM247.529 160.973C248.686 164.306 247.933 165.939 244.554 167.112C241.176 168.285 239.572 167.47 238.415 164.138C237.258 160.805 237.988 159.103 241.366 157.93C244.744 156.757 246.372 157.64 247.529 160.973Z" fill="#131119"/>
<path d="M247.076 145.852L231.194 148.366L231.757 151.922L247.639 149.407L247.076 145.852Z" fill="#131119"/>
<path d="M246.386 140.742L238.635 140.647L235.681 140.754L235.684 140.514L238.733 138.512L246.486 132.679L246.533 128.839L230.454 128.641L230.41 132.241L238.161 132.336L241.403 132.208L241.4 132.472L237.989 134.638L230.31 140.304L230.263 144.144L246.342 144.342L246.386 140.742Z" fill="#131119"/>
<path d="M240.134 106.125C239.481 107.7 240.222 109.487 241.774 110.13C243.348 110.782 245.135 110.042 245.788 108.468C246.431 106.916 245.69 105.128 244.116 104.476C242.564 103.833 240.777 104.573 240.134 106.125Z" fill="#131119"/>
<path d="M262.111 92.9576C265.311 89.0947 265.425 85.0443 262.283 82.4417L262.005 82.212L259.449 85.2987L259.726 85.5283C261.353 86.8755 261.363 88.4427 259.496 90.6976C257.245 93.4146 255.442 93.635 252.688 91.3539C249.934 89.0728 249.815 87.2601 252.065 84.5431C253.933 82.2882 255.475 82.0071 257.101 83.3543L257.379 83.584L259.935 80.4973L259.658 80.2677C256.516 77.6651 252.542 78.5496 249.358 82.394C245.975 86.4787 246.391 91.093 250.254 94.2927C254.117 97.4924 258.728 97.0423 262.111 92.9576Z" fill="#131119"/>
<path d="M270.858 83.4925L267.409 78.7894L269.325 77.3844C270.835 76.2774 271.56 76.2517 272.821 76.8749L277.071 78.937L280.438 76.4677L276.006 74.3604C274.856 73.8056 273.956 73.5126 272.568 74.0544L272.454 73.8996C274.723 71.8792 275.02 69.7271 273.473 67.6175C271.656 65.1401 268.801 65.0612 265.607 67.4028L258.446 72.6537L267.955 85.6212L270.858 83.4925ZM263.265 73.1378L267.504 70.0299C268.878 69.0223 269.824 69.0133 270.76 70.2907C271.754 71.6455 271.418 72.4867 270.044 73.4943L265.806 76.6023L263.265 73.1378Z" fill="#131119"/>
<path d="M290.366 72.0446L288.372 67.1296L291.038 54.4194L286.901 56.0974L285.823 61.6111L285.389 64.1179L285.145 64.2171L283.087 62.7207L278.472 59.5164L274.358 61.1853L285.005 68.4695L287.007 73.4068L290.366 72.0446Z" fill="#131119"/>
<path d="M301.528 68.592L300.883 64.1991L305.632 63.5017C309.313 62.9612 311.377 60.4991 310.84 56.8423C310.303 53.1856 307.622 51.4447 303.941 51.9852L295.63 53.2057L297.967 69.115L301.528 68.592ZM304.032 55.2466C306.003 54.9572 307.016 55.4148 307.302 57.3619C307.595 59.3565 306.752 60.0624 304.782 60.3518L300.412 60.9935L299.663 55.8882L304.032 55.2466Z" fill="#131119"/>
<path d="M321.816 67.555L322.904 54.7611L328.858 55.2673L329.133 52.0389L313.636 50.7217L313.362 53.9501L319.317 54.4562L318.229 67.2501L321.816 67.555Z" fill="#131119"/>
<path d="M337.808 71.1984C342.939 73.0296 347.133 71.0607 348.819 66.3365C350.505 61.6124 348.505 57.4331 343.374 55.6019C338.356 53.811 334.14 55.7719 332.454 60.496C330.768 65.2202 332.79 69.4075 337.808 71.1984ZM338.97 67.9435C335.647 66.7576 334.846 65.1466 336.048 61.7787C337.25 58.4107 338.89 57.671 342.213 58.8568C345.535 60.0427 346.404 61.6779 345.202 65.0458C344 68.4137 342.292 69.1293 338.97 67.9435Z" fill="#131119"/>
<path d="M369.204 75.2779C367.938 74.1382 366.006 74.2403 364.882 75.4893C363.742 76.7561 363.844 78.688 365.111 79.8277C366.36 80.9513 368.292 80.8492 369.432 79.5824C370.555 78.3335 370.453 76.4015 369.204 75.2779Z" fill="#131119"/>
<path d="M372.095 95.8193L379.22 91.8424L381.351 90.4885L381.479 90.719L379.735 92.7645L375.086 99.2075L377.214 103.022L385.139 102.447L387.796 102.036L387.924 102.266L385.665 103.39L378.54 107.366L380.295 110.51L394.336 102.673L391.949 98.398L383.256 99.0725L379.252 99.6305L379.123 99.4L381.677 96.2433L386.756 89.0932L384.382 84.839L370.341 92.6757L372.095 95.8193Z" fill="#131119"/>
<path d="M381.952 116.983L397.29 112.157L396.21 108.723L380.871 113.549L381.952 116.983Z" fill="#131119"/>
<path d="M383.354 121.708L391.032 120.639L393.935 120.089L393.969 120.327L391.255 122.764L384.466 129.695L384.995 133.498L400.922 131.28L400.425 127.715L392.747 128.784L389.561 129.397L389.525 129.136L392.572 126.482L399.313 119.728L398.784 115.925L382.857 118.142L383.354 121.708Z" fill="#131119"/>
<path d="M384.226 144.733L396.986 146.163L396.321 152.102L399.54 152.463L401.273 137.007L398.053 136.646L397.387 142.585L384.627 141.155L384.226 144.733Z" fill="#131119"/>
<path d="M326.408 98.1146L325.479 99.6358L312.639 147.556L312.995 148.171L338.762 140.983L326.408 98.1146Z" fill="#131119"/>
<path d="M326.408 98.1146L294.275 129.063L312.995 148.171L319.228 124.912L326.408 98.1146Z" fill="#131119"/>
<path d="M311.055 155.409L310.692 155.669L306.118 172.739L306.178 173.612L336.834 148.231L311.055 155.409Z" fill="#131119"/>
<path d="M306.179 173.613L311.057 155.409L292.334 136.307L306.179 173.613Z" fill="#131119"/>
<path d="M312.994 148.172L338.761 140.984L319.227 124.913L312.994 148.172Z" fill="#131119"/>
<path d="M294.275 129.063L312.996 148.171L319.228 124.912L294.275 129.063Z" fill="#131119"/>
<defs>
<filter id="filter0_f_101_11" x="5.91797" y="108.354" width="299.928" height="299.927" filterUnits="userSpaceOnUse" color-interpolation-filters="sRGB">
<feFlood flood-opacity="0" result="BackgroundImageFix"/>
<feBlend mode="normal" in="SourceGraphic" in2="BackgroundImageFix" result="shape"/>
<feGaussianBlur stdDeviation="12" result="effect1_foregroundBlur_101_11"/>
</filter>
<filter id="filter1_f_101_11" x="185.145" y="4.14502" width="262.887" height="262.886" filterUnits="userSpaceOnUse" color-interpolation-filters="sRGB">
<feFlood flood-opacity="0" result="BackgroundImageFix"/>
<feBlend mode="normal" in="SourceGraphic" in2="BackgroundImageFix" result="shape"/>
<feGaussianBlur stdDeviation="12" result="effect1_foregroundBlur_101_11"/>
</filter>
</defs>
</svg>
