<svg width="430" height="339" viewBox="0 0 430 339" fill="none" xmlns="http://www.w3.org/2000/svg">
<g clip-path="url(#clip0_254_10)">
<g filter="url(#filter0_f_254_10)">
<path d="M158.497 316.509C218.595 300.344 254.259 238.332 238.156 178.002C222.053 117.672 160.28 81.87 100.183 98.0354C40.0851 114.201 4.42058 176.212 20.5237 236.542C36.6268 296.872 98.3996 332.674 158.497 316.509Z" fill="#936EFD"/>
</g>
<path d="M158.441 316.74C219.048 300.438 255.015 237.901 238.776 177.059C222.536 116.218 160.239 80.1115 99.6321 96.4139C39.0249 112.716 3.05789 175.254 19.2976 236.095C35.5372 296.937 97.8339 333.043 158.441 316.74Z" fill="#936EFD"/>
<path d="M86.7746 214.041C100.531 210.342 106.197 202.421 103.714 193.122C101.176 183.615 93.576 180.676 82.1702 183.745C73.8748 185.975 69.7126 190.368 68.7773 194.636L68.0169 194.84L67.2019 191.787C64.6643 182.28 67.26 178.681 75.7627 176.394C82.3992 174.609 85.4515 175.498 86.5259 179.523L86.6744 180.078L98.2188 176.973L98.0703 176.418C95.5324 166.911 85.7458 162.999 73.0954 166.401C59.27 170.12 52.3075 180.397 56.6232 196.566C61.013 213.012 69.9076 218.578 86.7746 214.041ZM83.5541 204.197C74.9826 206.503 71.6803 205.235 70.569 201.07C69.4577 196.907 71.6535 194.308 80.3632 191.965C88.5896 189.753 91.5095 190.976 92.6572 195.278C93.7504 199.372 91.7806 201.985 83.5541 204.197ZM134.756 201.135C149.618 197.138 155.394 185.469 151.523 170.965C147.671 156.531 136.837 149.256 121.975 153.253C107.044 157.269 101.355 168.989 105.208 183.423C109.079 197.926 119.824 205.152 134.756 201.135ZM132.051 191.004C123.203 193.383 119.005 190.422 116.337 180.429C113.67 170.437 115.831 165.765 124.679 163.385C133.459 161.024 137.727 163.966 140.393 173.959C143.061 183.951 140.831 188.643 132.051 191.004ZM179.416 180.048L176.434 168.876L187.425 165.92L185.128 157.315L174.137 160.271L171.155 149.099L162.238 151.497L165.219 162.67L154.229 165.626L156.525 174.231L167.517 171.275L170.498 182.447L179.416 180.048Z" fill="#131119"/>
<path d="M99.49 248.925L92.4936 243.867L94.2219 250.341L91.319 251.122L87.4402 236.591L90.344 235.81L92.083 242.326L95.6112 234.393L99.1161 233.451L95.0655 242.26L103.16 247.937L99.49 248.925ZM104.094 232.111L107.973 246.642L105.07 247.423L101.191 232.892L104.094 232.111ZM123.222 242.541L120.319 243.322L111.084 235.117L113.745 245.09L110.842 245.87L106.958 231.319L109.861 230.538L119.103 238.763L116.435 228.769L119.338 227.989L123.222 242.541ZM127.273 225.877C128.793 225.467 130.208 225.407 131.515 225.695C132.835 225.979 133.955 226.593 134.873 227.536C135.801 228.461 136.461 229.653 136.85 231.11C137.238 232.567 137.261 233.929 136.918 235.197C136.585 236.447 135.917 237.527 134.915 238.436C133.927 239.341 132.672 239.998 131.151 240.408L126.092 241.769L122.213 227.237L127.273 225.877ZM130.387 237.958C131.907 237.549 132.972 236.817 133.578 235.76C134.186 234.705 134.288 233.42 133.884 231.908C133.48 230.395 132.751 229.327 131.695 228.704C130.636 228.066 129.346 227.952 127.825 228.361L125.772 228.913L128.334 238.51L130.387 237.958ZM145.993 236.571C144.984 236.843 144.025 236.915 143.117 236.788C142.223 236.656 141.453 236.328 140.809 235.802C140.165 235.275 139.717 234.571 139.467 233.686L142.577 232.849C142.778 233.435 143.111 233.851 143.577 234.097C144.057 234.341 144.628 234.373 145.292 234.194C145.969 234.012 146.459 233.709 146.761 233.285C147.06 232.849 147.138 232.367 146.997 231.839C146.882 231.409 146.657 231.09 146.32 230.883C145.983 230.677 145.594 230.55 145.152 230.505C144.72 230.443 144.133 230.408 143.39 230.399C142.376 230.375 141.537 230.31 140.872 230.207C140.217 230.085 139.602 229.812 139.03 229.385C138.466 228.942 138.063 228.262 137.819 227.346C137.589 226.486 137.603 225.678 137.862 224.925C138.119 224.171 138.592 223.524 139.277 222.982C139.959 222.427 140.797 222.015 141.792 221.748C143.285 221.346 144.593 221.388 145.716 221.875C146.848 222.344 147.637 223.218 148.082 224.496L144.888 225.355C144.727 224.863 144.405 224.511 143.918 224.3C143.442 224.071 142.879 224.044 142.229 224.219C141.663 224.371 141.245 224.639 140.977 225.024C140.723 225.404 140.671 225.872 140.818 226.428C140.922 226.816 141.134 227.109 141.453 227.306C141.783 227.485 142.156 227.607 142.573 227.674C143.002 227.722 143.589 227.758 144.336 227.78C145.35 227.805 146.191 227.876 146.86 227.993C147.528 228.111 148.151 228.39 148.728 228.829C149.305 229.27 149.714 229.94 149.954 230.843C150.162 231.62 150.154 232.396 149.931 233.17C149.708 233.944 149.263 234.636 148.596 235.247C147.926 235.844 147.058 236.285 145.993 236.571ZM165.294 231.38C163.938 231.744 162.609 231.76 161.305 231.427C160 231.093 158.867 230.454 157.904 229.507C156.936 228.548 156.261 227.354 155.88 225.924C155.502 224.509 155.494 223.149 155.859 221.846C156.218 220.53 156.88 219.4 157.843 218.457C158.806 217.513 159.966 216.86 161.32 216.495C162.689 216.127 164.019 216.112 165.309 216.448C166.613 216.782 167.742 217.431 168.696 218.394C169.659 219.339 170.33 220.52 170.708 221.936C171.09 223.365 171.1 224.738 170.74 226.055C170.391 227.354 169.734 228.475 168.771 229.419C167.807 230.362 166.648 231.016 165.294 231.38ZM164.599 228.778C165.47 228.544 166.185 228.142 166.745 227.576C167.301 226.995 167.668 226.286 167.845 225.45C168.022 224.614 167.981 223.711 167.721 222.739C167.462 221.767 167.05 220.971 166.483 220.35C165.914 219.715 165.245 219.292 164.478 219.082C163.71 218.872 162.892 218.884 162.02 219.118C161.149 219.353 160.427 219.755 159.854 220.326C159.294 220.893 158.925 221.595 158.748 222.43C158.567 223.253 158.607 224.15 158.866 225.121C159.126 226.092 159.54 226.896 160.11 227.531C160.679 228.166 161.349 228.596 162.121 228.82C162.902 229.026 163.728 229.012 164.599 228.778ZM179.878 211.727L180.506 214.079L174.471 215.702L175.465 219.429L180.09 218.185L180.707 220.496L176.082 221.74L177.721 227.881L174.818 228.662L170.939 214.131L179.878 211.727ZM95.0592 266.813L96.0316 270.457L100.905 269.145L101.522 271.457L96.648 272.767L97.6767 276.619L103.172 275.141L103.805 277.514L95.4063 279.773L91.5221 265.221L99.9212 262.962L100.555 265.335L95.0592 266.813ZM108.73 273.713L113.5 272.43L114.117 274.74L106.444 276.804L102.566 262.273L105.468 261.492L108.73 273.713ZM115.615 261.284L116.587 264.927L121.461 263.616L122.078 265.927L117.204 267.238L118.232 271.09L123.727 269.612L124.361 271.985L115.963 274.244L112.078 259.692L120.478 257.433L121.111 259.806L115.615 261.284ZM138.903 252.499L142.782 267.03L139.878 267.811L137.355 258.359L136 268.854L133.802 269.445L127.38 261.043L129.903 270.494L127 271.275L123.121 256.744L126.418 255.856L133.906 265.423L135.626 253.381L138.903 252.499ZM145.304 253.298L146.277 256.941L151.15 255.63L151.767 257.942L146.894 259.252L147.922 263.104L153.417 261.625L154.051 263.999L145.652 266.257L141.767 251.706L150.166 249.446L150.8 251.82L145.304 253.298ZM169.07 259.959L166.167 260.74L156.931 252.536L159.593 262.508L156.689 263.289L152.805 248.737L155.708 247.956L164.949 256.181L162.282 246.187L165.185 245.407L169.07 259.959ZM177.911 242.006L178.539 244.359L174.681 245.396L177.932 257.575L175.029 258.356L171.778 246.178L167.921 247.215L167.293 244.862L177.911 242.006ZM188.945 254.769C187.935 255.04 186.977 255.112 186.068 254.984C185.174 254.853 184.404 254.525 183.76 253.999C183.116 253.473 182.669 252.768 182.417 251.884L185.529 251.047C185.729 251.632 186.063 252.049 186.529 252.295C187.008 252.538 187.58 252.57 188.244 252.392C188.921 252.21 189.41 251.907 189.713 251.483C190.011 251.046 190.089 250.564 189.949 250.036C189.833 249.606 189.608 249.287 189.272 249.081C188.934 248.873 188.545 248.748 188.103 248.703C187.672 248.641 187.084 248.605 186.342 248.597C185.327 248.572 184.487 248.508 183.823 248.404C183.168 248.283 182.554 248.009 181.981 247.583C181.418 247.139 181.015 246.46 180.77 245.544C180.541 244.683 180.555 243.876 180.813 243.122C181.071 242.369 181.543 241.721 182.228 241.18C182.909 240.624 183.748 240.213 184.743 239.945C186.236 239.544 187.544 239.586 188.667 240.073C189.8 240.542 190.588 241.415 191.034 242.693L187.84 243.553C187.679 243.06 187.355 242.708 186.87 242.497C186.394 242.268 185.83 242.241 185.181 242.416C184.614 242.568 184.197 242.837 183.928 243.221C183.674 243.602 183.622 244.07 183.77 244.625C183.874 245.014 184.085 245.306 184.404 245.503C184.733 245.682 185.107 245.805 185.525 245.871C185.953 245.92 186.54 245.955 187.287 245.977C188.301 246.002 189.143 246.073 189.811 246.191C190.48 246.309 191.103 246.587 191.679 247.027C192.256 247.467 192.665 248.138 192.905 249.04C193.113 249.817 193.105 250.593 192.882 251.367C192.659 252.141 192.214 252.834 191.547 253.444C190.876 254.041 190.01 254.482 188.945 254.769Z" fill="#131119"/>
</g>
<g clip-path="url(#clip1_254_10)">
<g filter="url(#filter1_f_254_10)">
<path d="M274.239 226.977C328.592 241.539 384.461 209.289 399.025 154.947C413.589 100.604 381.333 44.7469 326.979 30.1859C272.626 15.6248 216.758 47.8741 202.194 102.217C187.63 156.559 219.885 212.416 274.239 226.977Z" fill="#33E9E9"/>
</g>
<path d="M273.43 229.994C329.449 245.001 387.029 211.764 402.039 155.756C417.049 99.7487 383.805 42.18 327.786 27.1728C271.768 12.1657 214.188 45.403 199.177 101.41C184.167 157.418 217.411 214.987 273.43 229.994Z" fill="#33E9E9"/>
<path d="M365.151 149.875L371.987 152.584L374.64 153.489L374.557 153.7L371.177 154.442L362.333 156.985L360.99 160.369L375.169 165.989L376.427 162.816L369.592 160.106L366.676 159.122L366.768 158.89L370.524 158.125L379.246 155.706L380.588 152.322L366.41 146.702L365.151 149.875Z" fill="#131119"/>
<path d="M358.306 164.366L363.009 167.571L357.855 175.131L360.376 176.848L365.53 169.288L368.37 171.224L363.024 179.066L365.564 180.796L372.833 170.133L360.229 161.545L358.306 164.366Z" fill="#131119"/>
<path d="M345.99 178.985L354.354 187.836L350.233 191.728L352.344 193.961L363.066 183.833L360.956 181.599L356.835 185.491L348.471 176.641L345.99 178.985Z" fill="#131119"/>
<path d="M330.847 194.053C329.197 194.822 328.375 196.561 329.251 198.439C330.126 200.316 331.986 200.804 333.637 200.035C335.267 199.275 336.11 197.526 335.234 195.649C334.359 193.772 332.477 193.293 330.847 194.053Z" fill="#131119"/>
<path d="M311.361 195.627L311.847 199.811L307.325 200.337C303.82 200.745 301.793 203.02 302.199 206.501C302.604 209.983 305.097 211.709 308.601 211.302L316.516 210.38L314.752 195.233L311.361 195.627ZM308.608 208.207C306.731 208.425 305.783 207.963 305.568 206.109C305.347 204.21 306.166 203.565 308.042 203.347L312.203 202.862L312.768 207.723L308.608 208.207Z" fill="#131119"/>
<path d="M292.85 195.772C287.715 195.197 284.271 197.926 283.74 202.653C283.21 207.38 285.965 210.804 291.101 211.379C296.123 211.942 299.589 209.216 300.12 204.489C300.65 199.761 297.873 196.335 292.85 195.772ZM292.485 199.029C295.81 199.402 296.9 200.715 296.523 204.086C296.144 207.455 294.792 208.494 291.465 208.122C288.14 207.749 286.983 206.429 287.36 203.058C287.739 199.688 289.159 198.656 292.485 199.029Z" fill="#131119"/>
<path d="M271.774 190.445L270.764 193.347L279.341 196.334L275.337 207.833L278.562 208.956L283.577 194.554L271.774 190.445Z" fill="#131119"/>
<path d="M263.32 185.456L260.694 189.747L249.495 194.875L253.106 197.085L257.921 194.801L260.078 193.718L260.291 193.849L260.309 196.262L260.466 201.588L264.058 203.785L263.614 191.56L266.252 187.25L263.32 185.456Z" fill="#131119"/>
<path d="M252.657 176.525C250.338 174.177 248.149 174.099 246.356 175.134L246.228 175.004L248.56 172.701L246.337 170.45L240.603 176.111L246.633 182.217L248.431 180.441L244.8 176.765C246.241 175.47 247.382 175.848 249.845 178.342C252.196 180.723 252.234 182.445 249.82 184.827C247.407 187.211 245.653 187.119 243.221 184.658C241.158 182.569 240.941 181.151 242.205 179.904L242.335 179.776L239.663 177.071L239.534 177.199C236.926 179.774 237.466 183.494 240.825 186.896C244.504 190.62 248.978 190.745 252.363 187.403C255.749 184.06 255.936 179.845 252.657 176.525Z" fill="#131119"/>
<path d="M242.026 162.843C239.394 158.397 235.141 157.291 231.047 159.714C226.952 162.138 225.877 166.398 228.509 170.843C231.084 175.192 235.348 176.317 239.443 173.894C243.537 171.471 244.601 167.191 242.026 162.843ZM239.205 164.512C240.91 167.392 240.517 169.052 237.599 170.78C234.68 172.508 233.035 172.053 231.33 169.173C229.626 166.294 229.983 164.575 232.902 162.848C235.821 161.12 237.5 161.634 239.205 164.512Z" fill="#131119"/>
<path d="M236.391 151.728L229.354 153.857L226.713 154.798L226.647 154.58L228.832 151.898L234.176 144.408L233.121 140.922L218.522 145.339L219.511 148.607L226.549 146.478L229.445 145.435L229.517 145.674L227.051 148.609L221.727 155.926L222.782 159.412L237.38 154.995L236.391 151.728Z" fill="#131119"/>
<path d="M228.089 125.597C228.159 123.778 226.989 122.251 224.919 122.171C222.849 122.09 221.563 123.521 221.492 125.34C221.422 127.137 222.591 128.686 224.661 128.766C226.731 128.847 228.018 127.394 228.089 125.597Z" fill="#131119"/>
<path d="M235.573 107.37L228.717 104.714L226.057 103.829L226.139 103.618L229.513 102.849L238.337 100.24L239.654 96.8445L225.432 91.3335L224.198 94.5168L231.054 97.1736L233.977 98.1352L233.887 98.3685L230.137 99.1613L221.434 101.648L220.118 105.043L234.339 110.554L235.573 107.37Z" fill="#131119"/>
<path d="M242.432 92.6069L237.717 89.4201L242.842 81.8402L240.315 80.1321L235.19 87.7121L232.342 85.7872L237.659 77.9245L235.113 76.2036L227.884 86.8948L240.519 95.435L242.432 92.6069Z" fill="#131119"/>
<path d="M254.691 77.9306L246.295 69.1104L250.401 65.2032L248.282 62.9775L237.596 73.1456L239.715 75.3713L243.821 71.464L252.218 80.2844L254.691 77.9306Z" fill="#131119"/>
<path d="M269.495 62.9243C271.142 62.1488 271.958 60.4066 271.075 58.5328C270.193 56.6589 268.331 56.177 266.683 56.9526C265.056 57.7183 264.22 59.4702 265.102 61.344C265.985 63.218 267.868 63.6901 269.495 62.9243Z" fill="#131119"/>
<path d="M293.465 60.8688C298.606 60.3483 301.397 56.9545 300.918 52.2218C300.439 47.4891 297.024 44.7237 291.883 45.2441C286.855 45.7532 284.04 49.1493 284.52 53.882C284.999 58.6146 288.437 61.3779 293.465 60.8688ZM293.135 57.608C289.805 57.9451 288.463 56.8914 288.121 53.5174C287.779 50.1434 288.884 48.842 292.213 48.505C295.542 48.1679 296.953 49.2146 297.294 52.5886C297.636 55.9627 296.464 57.2709 293.135 57.608Z" fill="#131119"/>
<path d="M305.66 60.406L306.193 56.2292L310.709 56.8056C314.209 57.2523 316.724 55.5312 317.168 52.0544C317.612 48.5775 315.607 46.3025 312.107 45.8558L304.204 44.8472L302.273 59.9738L305.66 60.406ZM311.357 48.8576C313.231 49.0968 314.039 49.7736 313.803 51.6249C313.561 53.5213 312.611 53.9508 310.737 53.7117L306.582 53.1814L307.202 48.3273L311.357 48.8576Z" fill="#131119"/>
<path d="M328.879 66.1875L329.89 63.2858L320.926 60.1646L321.936 57.2629L330.578 60.2719L331.582 57.3916L322.94 54.3827L323.92 51.567L332.885 54.6881L333.895 51.7864L321.706 47.5425L316.69 61.9436L328.879 66.1875Z" fill="#131119"/>
<path d="M332.902 68.3677L336.787 62.1263L338.151 59.6774L338.345 59.7977L338.472 63.2547L339.396 72.4086L342.488 74.3329L350.547 61.3865L347.649 59.5825L343.763 65.8238L342.274 68.5166L342.062 68.3843L341.98 64.5533L341.155 55.5415L338.063 53.6172L330.003 66.5636L332.902 68.3677Z" fill="#131119"/>
<path d="M348.283 80.2393C351.728 83.651 354.673 83.4278 356.42 81.6653C357.893 80.1776 358.19 78.1322 356.147 75.3416L353.587 71.8452C352.843 70.7866 352.711 70.2078 353.336 69.5772C354.025 68.8819 354.894 69.0709 356.642 70.8007C358.792 72.931 358.893 73.8962 357.868 74.931L357.644 75.1574L360.086 77.576L360.183 77.479C362.441 75.199 362.411 72.1253 359.078 68.8257C355.44 65.2218 352.415 65.6224 350.798 67.2555C349.052 69.0181 349.238 71.1255 350.875 73.3549L353.483 76.8027C354.406 78.1019 354.538 78.7129 353.881 79.3758C353.161 80.1035 352.419 79.946 350.478 78.024C348.278 75.8457 348.178 74.9449 349.171 73.9423L349.459 73.6512L347.033 71.2487L346.937 71.3457C344.438 73.8682 345 76.9878 348.283 80.2393Z" fill="#131119"/>
<path d="M360.921 96.4309L363.489 94.7421L358.273 86.8124L360.841 85.124L365.869 92.7685L368.418 91.0927L363.39 83.4481L365.88 81.8098L371.097 89.7396L373.665 88.0513L366.572 77.269L353.828 85.6483L360.921 96.4309Z" fill="#131119"/>
<path d="M362.478 99.7985L366.143 100.002L368.776 107.159L366.109 109.667L367.461 113.341L379.458 101.775L377.776 97.2038L361.159 96.21L362.478 99.7985ZM373.098 100.379L375.643 100.438L375.729 100.673L373.829 102.366L371.205 104.859L369.484 100.181L373.098 100.379Z" fill="#131119"/>
<path d="M372.863 127.759C372.876 129.58 374.114 131.051 376.186 131.037C378.258 131.023 379.477 129.535 379.465 127.715C379.453 125.917 378.214 124.423 376.142 124.437C374.071 124.45 372.851 125.961 372.863 127.759Z" fill="#131119"/>
<path d="M309.924 93.0439L309.043 94.4866L296.864 139.931L297.201 140.514L321.642 133.698L309.924 93.0439Z" fill="#131119"/>
<path d="M309.924 93.0439L279.445 122.394L297.201 140.515L303.113 118.457L309.924 93.0439Z" fill="#131119"/>
<path d="M295.361 147.378L295.017 147.625L290.678 163.813L290.735 164.641L319.813 140.571L295.361 147.378Z" fill="#131119"/>
<path d="M290.736 164.642L295.363 147.378L277.604 129.263L290.736 164.642Z" fill="#131119"/>
<path d="M297.2 140.515L321.641 133.699L303.112 118.458L297.2 140.515Z" fill="#131119"/>
<path d="M279.445 122.394L297.202 140.514L303.113 118.457L279.445 122.394Z" fill="#131119"/>
</g>
<defs>
<filter id="filter0_f_254_10" x="-7.3429" y="70.1538" width="273.365" height="274.237" filterUnits="userSpaceOnUse" color-interpolation-filters="sRGB">
<feFlood flood-opacity="0" result="BackgroundImageFix"/>
<feBlend mode="normal" in="SourceGraphic" in2="BackgroundImageFix" result="shape"/>
<feGaussianBlur stdDeviation="12" result="effect1_foregroundBlur_254_10"/>
</filter>
<filter id="filter1_f_254_10" x="174.697" y="2.68945" width="251.825" height="251.784" filterUnits="userSpaceOnUse" color-interpolation-filters="sRGB">
<feFlood flood-opacity="0" result="BackgroundImageFix"/>
<feBlend mode="normal" in="SourceGraphic" in2="BackgroundImageFix" result="shape"/>
<feGaussianBlur stdDeviation="12" result="effect1_foregroundBlur_254_10"/>
</filter>
<clipPath id="clip0_254_10">
<rect width="258" height="273" fill="white" transform="translate(0 66)"/>
</clipPath>
<clipPath id="clip1_254_10">
<rect width="258" height="257" fill="white" transform="translate(172)"/>
</clipPath>
</defs>
</svg>
