<svg width="156" height="15" viewBox="0 0 156 15" fill="none" xmlns="http://www.w3.org/2000/svg">
<path d="M3.8 14V7.2L3.68 5.1H3.9L4.68 7.2L7.48 13.2H11.12L13.92 7.2L14.7 5.1H14.92L14.82 7.2V14H17.82V0.6H13.74L10.7 7.2L9.48 10.34H9.26L8 7.2L4.86 0.6H0.8V14H3.8ZM30.7338 14V11.3H22.3938V8.6H30.4338V5.92H22.3938V3.3H30.7338V0.6H19.3938V14H30.7338ZM39.5491 14V3.3H44.5291V0.6H31.5691V3.3H36.5491V14H39.5491ZM48.0647 14L49.3447 11.04H56.0447L57.3047 14H60.7447L54.8447 0.6H50.5647L44.7047 14H48.0647ZM51.7647 5.42L52.5847 3.34H52.8047L53.6247 5.42L54.8847 8.34H50.5047L51.7647 5.42ZM66.9045 14.2C71.2645 14.2 72.9045 12.14 72.9045 8.7V0.6H69.7245V8.7C69.7245 10.58 69.2645 11.28 66.9045 11.28C64.5245 11.28 64.1245 10.54 64.1245 8.56V7.98H60.9445V8.56C60.9445 12.1 62.5645 14.2 66.9045 14.2ZM80.8933 14.2C85.2733 14.2 87.4733 12 87.4733 8.4V0.6H84.4733V8.18C84.4733 10.46 83.6333 11.28 80.8933 11.28C78.1733 11.28 77.3133 10.46 77.3133 8.18V0.6H74.3133V8.4C74.3133 12 76.5333 14.2 80.8933 14.2ZM91.9836 14V7.54L91.8636 5.08H92.0636L93.7636 7.6L98.7036 14H101.904V0.6H98.9036V7.06L99.0436 9.76H98.8236L96.9836 6.94L92.1836 0.6H88.9836V14H91.9836ZM109.815 14.2C112.715 14.2 114.115 12.88 114.575 11.12H114.735V14H117.515V6.92H109.975V9.14H114.515C114.435 10.84 113.495 11.32 110.415 11.32C107.475 11.32 106.375 10.28 106.375 7.3C106.375 4.32 107.515 3.28 110.555 3.28C113.135 3.28 114.155 4.02 114.155 5.58V5.74H117.495V5.58C117.495 2.36 114.835 0.4 110.635 0.4C106.035 0.4 103.195 3.12 103.195 7.3C103.195 11.48 105.715 14.2 109.815 14.2ZM129.964 14V11.3H121.984V0.6H118.984V14H129.964ZM142.511 14V11.3H134.171V8.6H142.211V5.92H134.171V3.3H142.511V0.6H131.171V14H142.511ZM149.946 14.2C154.206 14.2 155.906 12.24 155.906 10.06C155.906 8.22 154.826 6.76 151.826 6.28L148.066 5.68C146.946 5.48 146.506 5.2 146.506 4.42C146.506 3.56 147.166 3.14 149.326 3.14C151.986 3.14 152.646 3.68 152.646 4.96V5.24H155.666V5.12C155.666 2.3 153.746 0.4 149.626 0.4C145.126 0.4 143.486 2.52 143.486 4.54C143.486 6.72 144.906 7.92 147.306 8.3L151.066 8.84C152.446 9.08 152.906 9.38 152.906 10.2C152.906 11.1 152.346 11.46 149.946 11.46C147.226 11.46 146.606 10.96 146.606 9.72V9.36H143.606V9.48C143.606 12.6 145.886 14.2 149.946 14.2Z" fill="white"/>
</svg>
