<svg width="30" height="30" viewBox="0 0 30 30" fill="none" xmlns="http://www.w3.org/2000/svg">
<path opacity="0.3" d="M28.001 6.93655C27.044 7.36155 26.016 7.64755 24.937 7.77655C26.039 7.11655 26.884 6.07155 27.282 4.82555C26.252 5.43655 25.11 5.88055 23.894 6.12055C22.921 5.08355 21.535 4.43555 20.001 4.43555C17.055 4.43555 14.667 6.82455 14.667 9.76955C14.667 10.1875 14.715 10.5955 14.805 10.9845C10.372 10.7625 6.442 8.63855 3.81 5.41055C3.352 6.19855 3.089 7.11455 3.089 8.09355C3.089 9.94355 4.03 11.5765 5.461 12.5325C4.587 12.5045 3.764 12.2645 3.045 11.8655C3.045 11.8885 3.045 11.9095 3.045 11.9325C3.045 14.5175 4.883 16.6735 7.324 17.1625C6.877 17.2845 6.405 17.3495 5.918 17.3495C5.575 17.3495 5.24 17.3155 4.915 17.2545C5.594 19.3735 7.564 20.9165 9.898 20.9595C8.073 22.3905 5.773 23.2435 3.273 23.2435C2.843 23.2435 2.418 23.2185 2 23.1685C4.361 24.6815 7.164 25.5645 10.177 25.5645C19.989 25.5645 25.353 17.4365 25.353 10.3875C25.353 10.1565 25.348 9.92655 25.338 9.69755C26.381 8.94455 27.286 8.00555 28.001 6.93655Z" fill="white"/>
</svg>
